HIERARCHY
ROOT Spine
{
    OFFSET 0.0 0.0 -0.0
    CHANNELS 6 Xposition Yposition Zposition Zrotation Xrotation Yrotation
    JOINT ShoulderCenter
    {
        OFFSET 0.0 34.1893310546875 0.0
        CHANNELS 3 Zrotation Xrotation Yrotation
        JOINT LeftShoulder
        {
            OFFSET 21.03016471862793 0.0 0.0
            CHANNELS 3 Zrotation Xrotation Yrotation
            JOINT LeftElbow
            {
                OFFSET 28.253284454345703 0.0 0.0
                CHANNELS 3 Zrotation Xrotation Yrotation
                JOINT LeftHand
                {
                    OFFSET 33.8045539855957 0.0 0.0
                    CHANNELS 3 Zrotation Xrotation Yrotation
                    End Site
                    {
                        OFFSET 13.521820068359375 0.0 0.0
                    }
                }
            }
        }
        JOINT RightShoulder
        {
            OFFSET -21.03016471862793 0.0 0.0
            CHANNELS 3 Zrotation Xrotation Yrotation
            JOINT RightElbow
            {
                OFFSET -28.253284454345703 0.0 0.0
                CHANNELS 3 Zrotation Xrotation Yrotation
                JOINT RightHand
                {
                    OFFSET -33.8045539855957 0.0 0.0
                    CHANNELS 3 Zrotation Xrotation Yrotation
                    End Site
                    {
                        OFFSET -13.521820068359375 0.0 0.0
                    }
                }
            }
        }
        End Site
        {
            OFFSET 0.0 13.675732612609863 0.0
        }
    }
    JOINT LeftHip
    {
        OFFSET 17.35537089322694 -17.35537089322694 0.0
        CHANNELS 3 Zrotation Xrotation Yrotation
        JOINT LeftKnee
        {
            OFFSET 0.0 -39.73896789550781 0.0
            CHANNELS 3 Zrotation Xrotation Yrotation
            JOINT LeftFoot
            {
                OFFSET 0.0 -46.0120735168457 0.0
                CHANNELS 3 Zrotation Xrotation Yrotation
                End Site
                {
                    OFFSET 0.0 0.0 18.404829025268555
                }
            }
        }
    }
    JOINT RightHip
    {
        OFFSET -17.35537089322694 -17.35537089322694 0.0
        CHANNELS 3 Zrotation Xrotation Yrotation
        JOINT RightKnee
        {
            OFFSET 0.0 -39.73896789550781 0.0
            CHANNELS 3 Zrotation Xrotation Yrotation
            JOINT RightFoot
            {
                OFFSET 0.0 -46.0120735168457 0.0
                CHANNELS 3 Zrotation Xrotation Yrotation
                End Site
                {
                    OFFSET 0.0 0.0 18.404829025268555
                }
            }
        }
    }
}
MOTION
Frames: 9
Frame Time: 0.03333333333333333
-58.79999923706055 13.699999809265137 -91.9000015258789 -0.16704007938377963 -0.3340759071622026 94.6884290947703 4.1535083020892615e-08 -1.8306166127032666e-08 -2.461822103413869 92.91749784892033 20.846357151447595 172.91743862448425 -1.7501996449385523e-06 1.013308990035567e-08 25.700919790272785 6.3611093629270335e-15 -6.3611093629270335e-15 3.531125038440127e-31 -97.52666638311881 10.87292185647389 -169.72625029775622 1.8450240082273574e-06 -1.4753759593688146e-07 -30.07286624763605 0.0 0.0 0.0 5.132455656942773 -5.079397091615336 -26.17123650814756 1.5329395612416197 7.7937669649382 -22.172519096995504 -7.951386703658792e-16 9.93923337957349e-17 -6.957463365701443e-16 -4.1998569583561896 7.057473022351737 42.68967518638381 -11.18761893140644 -5.779370593955673 -16.219428512750998 0.0 0.0 8.895613874718273e-15
-58.70000076293945 13.699999809265137 -92.0 -5.438362973040366e-09 -0.33407730083113546 94.96884671539516 -1.2403471747990065e-08 -7.318943340603573e-09 -2.3282102110910157 93.05195222160008 20.88670177225948 172.71379267993893 2.6182624577387077e-06 -9.19687258939935e-07 25.584157703991153 -6.3611093629270335e-15 7.062250076880254e-31 -1.2722218725854067e-14 -97.74388017260593 10.834944458351863 -169.11297210450766 -1.5180676839151949e-06 -1.426073217044296e-05 -30.049168971841212 0.0 0.0 0.0 4.98150660841427 -4.927510423039602 -25.482757497866 1.6766931336327537 7.771653949550377 -21.992698319940036 1.9878466759146975e-16 -1.4908850069360234e-15 -2.0872390097104326e-15 -4.301207830120451 7.255119870838305 42.955967706846685 -11.037826080302438 -5.537330242493582 -15.638093166329147 1.0000256456519891e-32 7.951386703658792e-16 -1.441188840038156e-15
-58.60000228881836 13.699999809265137 -92.0999984741211 -1.1807142912815483e-08 -0.3340773166460909 94.96899428010687 1.0876393894212129e-08 -1.5560547361141324e-09 -2.467121059764055 92.93523882299064 22.314814457143072 172.85170666936955 1.3339675759830074e-06 -6.519804399944398e-07 25.605894552355956 -3.531125038440127e-31 -6.3611093629270335e-15 -6.3611093629270335e-15 -97.97402062963839 11.73955488057008 -169.05454079144658 -1.9996894252206184e-06 -5.310404266061491e-06 -29.59326337342058 0.0 0.0 -6.3611093629270335e-15 4.981493984243274 -4.927523363348615 -25.482887992284752 1.5083899040191613 7.850142570046864 -21.99800797353054 1.0991661191433501e-33 1.689669674527493e-15 -7.454425034680116e-17 -4.3003500637890735 7.421357207373658 43.23178375724833 -11.348492148821396 -5.5909815661872395 -16.04300535337455 -3.975693351829397e-16 6.724310375935788e-33 -1.938150509016831e-15
-58.499996185302734 13.699999809265137 -92.19999694824219 -2.5309329194930785e-10 -0.1670400836328174 94.69455176075894 4.457497623771802e-09 2.19004497093533e-09 -2.192812823426068 92.96828695894813 22.264928158305445 172.85602841386535 2.3483811470479155e-06 -1.8518165375970743e-06 25.637295654891933 -6.3611093629270335e-15 3.531125038440127e-31 -6.3611093629270335e-15 -98.47788910814681 12.59066016143883 -169.20835336759643 2.040012684419729e-06 4.6764257810623774e-07 -29.157979324157253 3.1805546814635168e-15 6.361109362927035e-15 6.361109362927035e-15 4.69902946177268 -4.879566387716957 -25.087139905555865 1.6117521867877747 8.018624088396152 -22.389942392754367 1.987846675914698e-16 -5.17254644302753e-34 -2.981770013872047e-16 -4.514820503762865 7.266880168008062 43.03644542289069 -11.159562388668123 -5.423916261329365 -15.65670163223334 0.0 0.0 -9.044702375411875e-15
-58.39999771118164 13.699999809265137 -92.19999694824219 -2.271727544545766e-09 -0.16704008370484055 94.67208988300408 -4.397418801624523e-09 5.1443163441017245e-09 -1.8927741017199344 93.25543308178074 21.223053731429978 172.95626383756513 4.886865277982136e-06 3.493515460068873e-06 25.79212799105746 6.3611093629270335e-15 0.0 0.0 -98.88594335969901 12.644823103264292 -168.9634427693307 -3.4568471413476036e-06 -1.7868138204613432e-06 -29.689056455162365 -3.1805546814635168e-15 1.7655625192200634e-31 -6.3611093629270335e-15 4.712321661835549 -4.738760487406722 -25.18440901903552 1.5030163636992782 7.835027246201313 -21.53796832385676 0.0 0.0 -7.205944200190779e-16 -4.505474265797382 7.412558603534026 43.23049542692003 -11.30719101834423 -5.480955400562561 -15.845614107147329 -1.987846675914698e-15 5.517382872562698e-32 -3.1805546814635168e-15
-58.39999771118164 13.600000381469727 -92.29999542236328 -0.16704005919004938 -5.3888601633273524e-09 94.94038321614633 5.729885815013021e-09 1.0741546137589458e-08 -2.574748147306802 93.54925075113998 21.073923351726044 172.68452600174788 -6.139643720011817e-07 6.399643108444022e-07 26.74262060201806 6.3611093629270335e-15 0.0 0.0 -99.41642617386292 12.450513620988584 -169.37604968749287 -2.3600492848596854e-06 -4.4924030431107593e-07 -30.00886500625414 -3.1805546814635164e-15 -6.3611093629270335e-15 6.3611093629270335e-15 4.753026768365621 -5.350779270998049 -24.85150124253913 0.8431692420419471 8.275774743391247 -22.550007295002786 -1.987846675914698e-16 -4.008723493346335e-33 2.3108717607508363e-15 -4.6498382690292805 7.282019400911494 42.8510423337047 -11.278097762223894 -5.506679415143216 -15.55944225345498 -3.975693351829396e-16 -9.827838241752306e-33 2.8326815131784447e-15
-58.29999923706055 13.600000381469727 -92.29999542236328 -0.3340835980467694 0.16703719284545004 94.96048301413984 2.6572561320625643e-08 2.0626318031458712e-08 -2.45178260026887 93.80109316337392 20.904493832827182 172.66768581121198 4.811187903610251e-07 2.2360380088240907e-06 27.484052905001644 0.0 -3.1805546814635168e-15 0.0 -100.16699090562491 12.82796080171361 -169.85898757901526 6.216904502349734e-06 -8.51849911596201e-07 -30.200136988409408 0.0 0.0 0.0 4.698786326883207 -5.653447607782537 -24.650099918166184 0.5103418571402053 8.423693482644826 -22.615197791525283 -1.987846675914698e-16 5.603591979946491e-34 -3.2302508483613845e-16 -4.826576096443391 7.132180731609572 43.148998905684955 -11.386356230958237 -5.351884093880262 -15.334234805018268 2.3854160110976368e-15 -6.103604802772484e-32 -2.932073846974179e-15
-58.20000076293945 13.600000381469727 -92.29999542236328 -0.3340836472661639 0.3340715884784892 94.9372439815029 1.768670768010773e-08 2.2683751152261428e-08 -2.0132159399408898 94.35943469139274 19.166954384795954 172.55253463848032 -1.8851494879062823e-06 2.1955323650439678e-06 27.82843947621458 0.0 0.0 6.361109362927032e-15 -100.61372041668618 12.849901177176436 -170.01789415471836 5.156339357104024e-06 1.0542466286947565e-06 -30.67231820916561 -3.1805546814635168e-15 -1.7655625192200634e-31 6.3611093629270335e-15 4.546540602892281 -5.49855894054051 -25.142926782347317 0.34316608984148017 8.241179538215235 -21.454581471010144 9.939233379573492e-17 2.575497083090791e-33 2.9693459721475807e-15 -5.132196558610368 7.302989347053043 44.179000285362925 -11.41718387382096 -5.451023786142554 -15.585873711699351 3.975693351829396e-16 4.138037154422024e-33 1.1927080055488188e-15
-58.099998474121094 13.600000381469727 -92.29999542236328 -0.5025805023230414 0.5025547019218194 94.93504106900124 4.0238129914105996e-08 -8.462010941520451e-10 -2.144289867017878 94.32927886973212 20.0417114218037 172.93432362067415 5.596163711021111e-06 5.4677022327282635e-06 27.359206611144117 -6.3611093629270335e-15 0.0 0.0 -100.78129397481493 13.585483406911216 -170.77854082567774 -1.0288416654206453e-06 -2.3498443516302573e-06 -30.347556929003854 -9.541664044390549e-15 1.059337511532038e-30 -1.2722218725854065e-14 4.377594205375433 -5.51247587735457 -25.24771233122705 0.2673776546330879 8.080270652609094 -20.751917661681965 9.939233379573487e-17 -1.5902773407317582e-15 -4.845376272542075e-16 -5.31321615208858 7.149943036350186 44.576345941076596 -11.532674530032509 -5.102121683847191 -14.91214432530745 0.0 0.0 4.07508568562513e-15
